<svg width="294" height="87" viewBox="0 0 294 87" fill="none" xmlns="http://www.w3.org/2000/svg">
<path d="M12.1406 59H6.72656C6.58594 59 6.51562 58.9219 6.51562 58.7656V31.3906H0.28125C0.125 31.3906 0.046875 31.3125 0.046875 31.1562L0.09375 25.7891C0.09375 25.6641 0.15625 25.6016 0.28125 25.6016H18.5156C18.6875 25.6016 18.7734 25.6641 18.7734 25.7891V31.1562C18.7734 31.3125 18.7109 31.3906 18.5859 31.3906H12.2812L12.3281 58.7656C12.3281 58.9219 12.2656 59 12.1406 59ZM18.0469 58.7656L24 25.7891C24.0312 25.6641 24.1094 25.6016 24.2344 25.6016H31.1953C31.3203 25.6016 31.3984 25.6641 31.4297 25.7891L37.1484 58.7656C37.1641 58.9219 37.1016 59 36.9609 59H31.6406C31.4844 59 31.3984 58.9219 31.3828 58.7656L30.8672 55.25H24.3281L23.8125 58.7656C23.7969 58.9219 23.7188 59 23.5781 59H18.2344C18.1094 59 18.0469 58.9219 18.0469 58.7656ZM27.4453 36.6406L25.2891 50.1172H29.9062L27.9375 36.6406L27.6562 34.8594L27.4453 36.6406ZM48.3047 59.4688C46.6016 59.4688 45.0312 59.0312 43.5938 58.1562C42.1719 57.2812 41.0312 56.1172 40.1719 54.6641C39.3281 53.1953 38.9062 51.5859 38.9062 49.8359V47.6328C38.9062 47.4609 38.9844 47.375 39.1406 47.375H44.5312C44.6562 47.375 44.7188 47.4609 44.7188 47.6328V49.8359C44.7188 50.8828 45.0703 51.7891 45.7734 52.5547C46.4766 53.3047 47.3203 53.6797 48.3047 53.6797C49.3047 53.6797 50.1562 53.2969 50.8594 52.5312C51.5625 51.75 51.9141 50.8516 51.9141 49.8359C51.9141 48.6641 51.1484 47.6406 49.6172 46.7656C49.3672 46.6094 49.0391 46.4219 48.6328 46.2031C48.2422 45.9688 47.7734 45.7031 47.2266 45.4062C46.6797 45.1094 46.1484 44.8203 45.6328 44.5391C45.1172 44.2422 44.6172 43.9609 44.1328 43.6953C42.3828 42.6641 41.0781 41.375 40.2188 39.8281C39.375 38.2656 38.9531 36.5156 38.9531 34.5781C38.9531 32.7969 39.3906 31.1875 40.2656 29.75C41.1406 28.3281 42.2812 27.2031 43.6875 26.375C45.1094 25.5312 46.6484 25.1094 48.3047 25.1094C50.0078 25.1094 51.5703 25.5312 52.9922 26.375C54.4141 27.2344 55.5469 28.375 56.3906 29.7969C57.25 31.2188 57.6797 32.8125 57.6797 34.5781V38.5156C57.6797 38.6406 57.6172 38.7031 57.4922 38.7031H52.1016C51.9766 38.7031 51.9141 38.6406 51.9141 38.5156L51.8672 34.5781C51.8672 33.4531 51.5156 32.5391 50.8125 31.8359C50.1094 31.1328 49.2734 30.7812 48.3047 30.7812C47.3203 30.7812 46.4766 31.1562 45.7734 31.9062C45.0703 32.6562 44.7188 33.5469 44.7188 34.5781C44.7188 35.625 44.9375 36.5 45.375 37.2031C45.8281 37.9062 46.6484 38.5781 47.8359 39.2188C47.9609 39.2812 48.25 39.4375 48.7031 39.6875C49.1562 39.9375 49.6562 40.2188 50.2031 40.5312C50.7656 40.8281 51.2734 41.1016 51.7266 41.3516C52.1797 41.5859 52.4531 41.7266 52.5469 41.7734C54.1406 42.6641 55.3984 43.7578 56.3203 45.0547C57.2578 46.3516 57.7266 47.9453 57.7266 49.8359C57.7266 51.6641 57.3047 53.3047 56.4609 54.7578C55.6016 56.2109 54.4609 57.3594 53.0391 58.2031C51.6172 59.0469 50.0391 59.4688 48.3047 59.4688ZM66.6797 59H61.2422C61.1172 59 61.0547 58.9219 61.0547 58.7656L61.1484 25.8359C61.1484 25.6797 61.2109 25.6016 61.3359 25.6016H66.7266C66.8516 25.6016 66.9141 25.6797 66.9141 25.8359V37.2031L74.4375 25.7891C74.5625 25.6641 74.6797 25.6016 74.7891 25.6016H80.2969C80.4375 25.6016 80.4688 25.6641 80.3906 25.7891L72.0938 39.0312L81.3984 58.8125C81.4766 58.9375 81.3984 59 81.1641 59H75.3047C75.1484 59 75.0547 58.9375 75.0234 58.8125L68.5312 44.7031L66.8672 47.3281V58.7656C66.8672 58.9219 66.8047 59 66.6797 59ZM106.266 59H100.852C100.711 59 100.641 58.9219 100.641 58.7656V31.3906H94.4062C94.25 31.3906 94.1719 31.3125 94.1719 31.1562L94.2188 25.7891C94.2188 25.6641 94.2812 25.6016 94.4062 25.6016H112.641C112.812 25.6016 112.898 25.6641 112.898 25.7891V31.1562C112.898 31.3125 112.836 31.3906 112.711 31.3906H106.406L106.453 58.7656C106.453 58.9219 106.391 59 106.266 59ZM120.867 59H115.43C115.305 59 115.242 58.9219 115.242 58.7656L115.336 25.7891C115.336 25.6641 115.398 25.6016 115.523 25.6016H125.227C126.961 25.6016 128.555 26.0234 130.008 26.8672C131.461 27.7109 132.617 28.8438 133.477 30.2656C134.352 31.6875 134.789 33.2969 134.789 35.0938C134.789 36.2656 134.609 37.3281 134.25 38.2812C133.891 39.2344 133.469 40.0391 132.984 40.6953C132.516 41.3516 132.086 41.8359 131.695 42.1484C133.43 44.0703 134.297 46.3281 134.297 48.9219L134.344 58.7656C134.344 58.9219 134.266 59 134.109 59H128.672C128.547 59 128.484 58.9531 128.484 58.8594V48.9219C128.484 47.7656 128.078 46.7656 127.266 45.9219C126.453 45.0781 125.453 44.6562 124.266 44.6562H121.102L121.055 58.7656C121.055 58.9219 120.992 59 120.867 59ZM125.227 31.3438H121.102V38.8906H125.227C126.211 38.8906 127.086 38.5234 127.852 37.7891C128.633 37.0547 129.023 36.1562 129.023 35.0938C129.023 34.0781 128.648 33.2031 127.898 32.4688C127.148 31.7188 126.258 31.3438 125.227 31.3438ZM135.797 58.7656L141.75 25.7891C141.781 25.6641 141.859 25.6016 141.984 25.6016H148.945C149.07 25.6016 149.148 25.6641 149.18 25.7891L154.898 58.7656C154.914 58.9219 154.852 59 154.711 59H149.391C149.234 59 149.148 58.9219 149.133 58.7656L148.617 55.25H142.078L141.562 58.7656C141.547 58.9219 141.469 59 141.328 59H135.984C135.859 59 135.797 58.9219 135.797 58.7656ZM145.195 36.6406L143.039 50.1172H147.656L145.688 36.6406L145.406 34.8594L145.195 36.6406ZM166.734 59.4688C165 59.4688 163.414 59.0312 161.977 58.1562C160.555 57.2812 159.422 56.1094 158.578 54.6406C157.75 53.1562 157.336 51.5078 157.336 49.6953L157.383 34.7188C157.383 32.9375 157.789 31.3281 158.602 29.8906C159.414 28.4375 160.531 27.2734 161.953 26.3984C163.391 25.5078 164.984 25.0625 166.734 25.0625C168.516 25.0625 170.102 25.4922 171.492 26.3516C172.898 27.2109 174.016 28.375 174.844 29.8438C175.688 31.2969 176.109 32.9219 176.109 34.7188V36.9219C176.109 37.0469 176.047 37.1094 175.922 37.1094H170.531C170.406 37.1094 170.344 37.0469 170.344 36.9219V34.7188C170.344 33.6562 170 32.7422 169.312 31.9766C168.625 31.2109 167.766 30.8281 166.734 30.8281C165.594 30.8281 164.719 31.2188 164.109 32C163.5 32.7812 163.195 33.6875 163.195 34.7188V49.6953C163.195 50.8672 163.539 51.8281 164.227 52.5781C164.914 53.3125 165.75 53.6797 166.734 53.6797C167.766 53.6797 168.625 53.2734 169.312 52.4609C170 51.6328 170.344 50.7109 170.344 49.6953V47.4688C170.344 47.3438 170.406 47.2812 170.531 47.2812H175.969C176.094 47.2812 176.156 47.3438 176.156 47.4688V49.6953C176.156 51.4922 175.734 53.1328 174.891 54.6172C174.031 56.0859 172.898 57.2656 171.492 58.1562C170.086 59.0312 168.5 59.4688 166.734 59.4688ZM185.273 59H179.836C179.711 59 179.648 58.9219 179.648 58.7656L179.742 25.8359C179.742 25.6797 179.805 25.6016 179.93 25.6016H185.32C185.445 25.6016 185.508 25.6797 185.508 25.8359V37.2031L193.031 25.7891C193.156 25.6641 193.273 25.6016 193.383 25.6016H198.891C199.031 25.6016 199.062 25.6641 198.984 25.7891L190.688 39.0312L199.992 58.8125C200.07 58.9375 199.992 59 199.758 59H193.898C193.742 59 193.648 58.9375 193.617 58.8125L187.125 44.7031L185.461 47.3281V58.7656C185.461 58.9219 185.398 59 185.273 59ZM216.867 59H201.352C201.227 59 201.164 58.9219 201.164 58.7656L201.211 25.7891C201.211 25.6641 201.273 25.6016 201.398 25.6016H216.82C216.945 25.6016 217.008 25.6797 217.008 25.8359V31.2031C217.008 31.3281 216.945 31.3906 216.82 31.3906H206.977V38.8906H216.82C216.945 38.8906 217.008 38.9531 217.008 39.0781L217.055 44.5156C217.055 44.6406 216.992 44.7031 216.867 44.7031H206.977V53.0938H216.867C216.992 53.0938 217.055 53.1719 217.055 53.3281V58.8125C217.055 58.9375 216.992 59 216.867 59ZM226.945 59H221.508C221.383 59 221.32 58.9219 221.32 58.7656L221.414 25.7891C221.414 25.6641 221.477 25.6016 221.602 25.6016H231.305C233.039 25.6016 234.633 26.0234 236.086 26.8672C237.539 27.7109 238.695 28.8438 239.555 30.2656C240.43 31.6875 240.867 33.2969 240.867 35.0938C240.867 36.2656 240.688 37.3281 240.328 38.2812C239.969 39.2344 239.547 40.0391 239.062 40.6953C238.594 41.3516 238.164 41.8359 237.773 42.1484C239.508 44.0703 240.375 46.3281 240.375 48.9219L240.422 58.7656C240.422 58.9219 240.344 59 240.188 59H234.75C234.625 59 234.562 58.9531 234.562 58.8594V48.9219C234.562 47.7656 234.156 46.7656 233.344 45.9219C232.531 45.0781 231.531 44.6562 230.344 44.6562H227.18L227.133 58.7656C227.133 58.9219 227.07 59 226.945 59ZM231.305 31.3438H227.18V38.8906H231.305C232.289 38.8906 233.164 38.5234 233.93 37.7891C234.711 37.0547 235.102 36.1562 235.102 35.0938C235.102 34.0781 234.727 33.2031 233.977 32.4688C233.227 31.7188 232.336 31.3438 231.305 31.3438Z" fill="white"/>
<path d="M280.836 27.9768L277.079 24.4641H256V59.3963H286.889V41.1496" fill="#E8E8E8"/>
<path d="M280.836 27.9768L277.079 24.4641H256V59.3963H286.889V41.1496" stroke="#757575" stroke-linecap="round" stroke-linejoin="round"/>
<path d="M282.034 26.9523L268.468 44.7111L266.903 57.0057L278.904 51.8342L292.783 33.8802C292.868 33.7787 292.93 33.6622 292.965 33.5377C293.001 33.4131 293.009 33.2832 292.99 33.1556C292.97 33.028 292.923 32.9054 292.852 32.7951C292.78 32.6849 292.686 32.5893 292.574 32.5141L283.808 26.6596C283.527 26.4904 283.189 26.4265 282.86 26.4808C282.531 26.5351 282.236 26.7035 282.034 26.9523Z" fill="#E8E8E8" stroke="#757575" stroke-linecap="round" stroke-linejoin="round"/>
<path d="M267.425 52.6146C268.217 52.7043 268.97 52.9855 269.611 53.4304C270.251 53.8752 270.756 54.4685 271.077 55.1516M268.468 44.711L278.904 51.834ZM280.156 29.4891L290.591 36.7097ZM278.695 31.2455L289.235 38.4661ZM261.476 36.7097V27.44C261.476 26.074 264.085 26.1715 264.085 27.44V37.8807C264.085 40.3201 259.181 40.3201 259.181 37.8807V23.9273C259.181 20.0242 265.024 20.0242 265.338 23.9273" fill="#E8E8E8"/>
<path d="M267.425 52.6146C268.217 52.7043 268.97 52.9855 269.611 53.4304C270.251 53.8752 270.756 54.4685 271.077 55.1516M268.468 44.711L278.904 51.834M280.156 29.4891L290.591 36.7097M278.695 31.2455L289.235 38.4661M261.476 36.7097V27.44C261.476 26.074 264.085 26.1715 264.085 27.44V37.8807C264.085 40.3201 259.181 40.3201 259.181 37.8807V23.9273C259.181 20.0242 265.024 20.0242 265.338 23.9273" stroke="#757575" stroke-linecap="round" stroke-linejoin="round"/>
<path d="M237 58L238.745 62.7144C239.256 64.0943 239.881 65.4288 240.616 66.704L241.516 68.2672C241.854 68.855 242.255 69.4049 242.71 69.9074C243.705 71.0044 244.943 71.8535 246.324 72.3867L247.992 73.0303L249.225 73.3233C251.118 73.7729 253.057 74 255.003 74H255.474C256.972 74 258.465 73.8373 259.928 73.5147L260.461 73.3971C261.566 73.1533 262.657 72.7836 263.684 72.308C264.724 71.8259 265.723 71.222 266.631 70.5211C267.807 69.6128 268.846 68.5388 269.714 67.3324L271.545 64.7879L273.116 61.8788M273.116 61.8788L268.405 62.8485M273.116 61.8788L275 67.2121" stroke="white" stroke-width="2"/>
</svg>
